<svg xmlns="http://www.w3.org/2000/svg" viewBox="0 0 256 256"><defs><style>.cls-1{fill:#fff;}.cls-2{fill:#04635e;}.cls-3{fill:#0db5ac;}</style></defs><title>icon</title><g id="Layer_2" data-name="Layer 2"><g id="Layer_1-2" data-name="Layer 1"><rect class="cls-1" width="256" height="256"/><path class="cls-2" d="M133.11,17.13H104.74c-4,0-7.83,1.3-10.18,4.62L54.14,78.39a12.92,12.92,0,0,0,0,15L94.53,150a12.55,12.55,0,0,0,10.18,5.3h28.37c10.28,0,16.23-11.84,10.19-20.3L113.56,93.39a12.92,12.92,0,0,1,0-15l29.71-41.65A12.28,12.28,0,0,0,133.11,17.13Z"/><path class="cls-3" d="M201.84,78.27,161.6,21.84a12.73,12.73,0,0,0-10.37-5.39H104.74s-6.52-.13-10.18,5.3l-2.9,4.06S99.41,17.62,113,37.12l29.32,41.15a13.24,13.24,0,0,1,0,15.27L113,134.69h0C99.38,154.18,91.63,146,91.63,146l2.9,4.06a12.22,12.22,0,0,0,10.18,5.3h46.52A12.73,12.73,0,0,0,161.6,150l40.24-56.46A13.2,13.2,0,0,0,201.84,78.27Z"/><path class="cls-2" d="M190.19,155.61,173.84,132.8a9,9,0,0,1-6.9,2.92H126.22c-2.32,0-6.19.55-3,5.08l14.7,20.45a9.2,9.2,0,0,0,7.38,3.84h40.18A6,6,0,0,0,190.19,155.61Z"/><path class="cls-2" d="M71.34,230.32a16.07,16.07,0,0,0,11.59,4.83c.34,0,.86,0,1.41,0h.06l2.74,4a.7.7,0,0,0,.64.4H94a.76.76,0,0,0,.67-.37.9.9,0,0,0,0-.87l-3.85-5.14.13-.06a17.46,17.46,0,0,0,8.42-14.57,16.75,16.75,0,0,0-4.79-11.8,16.27,16.27,0,0,0-23.22,0,16.94,16.94,0,0,0,0,23.58Zm11.59-21.26a9.44,9.44,0,1,1-9.24,9.48A9.38,9.38,0,0,1,82.93,209.06Z"/><path class="cls-2" d="M134.09,203.08a.8.8,0,0,0-.76-.77h-5.65a.76.76,0,0,0-.76.77V222a6.12,6.12,0,0,1-1.65,4.25,5.81,5.81,0,0,1-9.94-4.25V203.08a.76.76,0,0,0-.76-.77h-5.65a.8.8,0,0,0-.76.77v19.24a13,13,0,0,0,25.9,0V203.08Z"/><path class="cls-2" d="M153.28,203.08a.8.8,0,0,0-.77-.77H147a.8.8,0,0,0-.76.77v30.83a.81.81,0,0,0,.76.78h5.49a.81.81,0,0,0,.77-.78Z"/><path class="cls-2" d="M177.19,202.31H166a.73.73,0,0,0-.71.77v30.83a.78.78,0,0,0,.71.78h11.19a16.19,16.19,0,0,0,0-32.38ZM176.73,228h-4.51V208.94h4.51c5.16,0,9.06,4.09,9.06,9.51S181.89,228,176.73,228Z"/></g></g></svg>